<?xml version="1.0" encoding="UTF-8" standalone="no"?><!DOCTYPE svg PUBLIC "-//W3C//DTD SVG 1.1//EN" "http://www.w3.org/Graphics/SVG/1.1/DTD/svg11.dtd"><svg width="100%" height="100%" viewBox="0 0 46 46" version="1.1" xmlns="http://www.w3.org/2000/svg" xmlns:xlink="http://www.w3.org/1999/xlink" xml:space="preserve" xmlns:serif="http://www.serif.com/" style="fill-rule:evenodd;clip-rule:evenodd;stroke-linejoin:round;stroke-miterlimit:2;"><path id="Combined-Shape" d="M2.293,2.293c1.627,-1.627 4.265,-1.627 5.892,0l14.729,14.729l14.734,-14.729c1.627,-1.627 4.265,-1.627 5.893,0c1.627,1.627 1.627,4.265 0,5.892l-14.731,14.729l14.731,14.734c1.502,1.502 1.617,3.866 0.346,5.5l-0.346,0.393c-1.628,1.627 -4.266,1.627 -5.893,0l-14.734,-14.731l-14.729,14.731c-1.627,1.627 -4.265,1.627 -5.892,0c-1.627,-1.628 -1.627,-4.266 0,-5.893l14.729,-14.734l-14.729,-14.729c-1.502,-1.502 -1.618,-3.865 -0.347,-5.5l0.347,-0.392Z"/></svg>