<?xml version="1.0" encoding="UTF-8" standalone="no"?><!DOCTYPE svg PUBLIC "-//W3C//DTD SVG 1.1//EN" "http://www.w3.org/Graphics/SVG/1.1/DTD/svg11.dtd"><svg width="100%" height="100%" viewBox="0 0 17 67" version="1.1" xmlns="http://www.w3.org/2000/svg" xmlns:xlink="http://www.w3.org/1999/xlink" xml:space="preserve" xmlns:serif="http://www.serif.com/" style="fill-rule:evenodd;clip-rule:evenodd;stroke-linejoin:round;stroke-miterlimit:2;"><path id="More" d="M8.333,50c4.603,0 8.334,3.731 8.334,8.333c0,4.603 -3.731,8.334 -8.334,8.334c-4.602,0 -8.333,-3.731 -8.333,-8.334c0,-4.602 3.731,-8.333 8.333,-8.333Zm0,-25c4.603,0 8.334,3.731 8.334,8.333c0,4.603 -3.731,8.334 -8.334,8.334c-4.602,0 -8.333,-3.731 -8.333,-8.334c0,-4.602 3.731,-8.333 8.333,-8.333Zm0,-25c4.603,0 8.334,3.731 8.334,8.333c0,4.603 -3.731,8.334 -8.334,8.334c-4.602,0 -8.333,-3.731 -8.333,-8.334c0,-4.602 3.731,-8.333 8.333,-8.333Z"/></svg>