<?xml version="1.0" encoding="UTF-8" standalone="no"?><!DOCTYPE svg PUBLIC "-//W3C//DTD SVG 1.1//EN" "http://www.w3.org/Graphics/SVG/1.1/DTD/svg11.dtd"><svg width="100%" height="100%" viewBox="0 0 50 46" version="1.1" xmlns="http://www.w3.org/2000/svg" xmlns:xlink="http://www.w3.org/1999/xlink" xml:space="preserve" xmlns:serif="http://www.serif.com/" style="fill-rule:evenodd;clip-rule:evenodd;stroke-linejoin:round;stroke-miterlimit:2;"><path id="Combined-Shape" d="M29.167,35.417c2.301,0 4.166,1.865 4.166,4.166c0,2.302 -1.865,4.167 -4.166,4.167l-25,0c-2.302,0 -4.167,-1.865 -4.167,-4.167c0,-2.301 1.865,-4.166 4.167,-4.166l25,0Zm-25,-16.667l41.666,0c2.302,0 4.167,1.865 4.167,4.167c0,2.301 -1.865,4.166 -4.167,4.166l-41.666,0c-2.302,0 -4.167,-1.865 -4.167,-4.166c0,-2.302 1.865,-4.167 4.167,-4.167Zm41.666,-16.667c2.302,0 4.167,1.866 4.167,4.167c0,2.301 -1.865,4.167 -4.167,4.167l-41.666,0c-2.302,0 -4.167,-1.866 -4.167,-4.167c0,-2.301 1.865,-4.167 4.167,-4.167l41.666,0Z"/></svg>